<svg width="153" height="26" viewBox="0 0 153 26" fill="none" xmlns="http://www.w3.org/2000/svg">
<path d="M45 2.375C38.9234 2.375 34 7.14453 34 13.0312C34 18.918 38.9234 23.6875 45 23.6875C51.0766 23.6875 56 18.918 56 13.0312C56 7.14453 51.0766 2.375 45 2.375ZM50.4024 9.67539L48.5972 17.9168C48.4641 18.5012 48.1048 18.643 47.6036 18.368L44.8536 16.4043L43.5274 17.6418C43.381 17.7836 43.2569 17.9039 42.973 17.9039L43.1681 15.1926L48.2645 10.7324C48.4863 10.5434 48.2157 10.4359 47.923 10.625L41.6246 14.4664L38.9101 13.6457C38.3202 13.4652 38.3069 13.0742 39.0343 12.7992L49.6395 8.8375C50.1319 8.66562 50.5621 8.95352 50.4024 9.67539Z" fill="white"/>
<path d="M90 3.83354V22.1667C90 23.2071 89.3512 24 88.5 24H87V7.36176L78 15.2633L69 7.36176V24H67.5C66.6488 24 66 23.2071 66 22.1667V3.83354C66 3.31288 66.1605 2.85456 66.4298 2.53006C66.57 2.35858 66.737 2.22331 66.9208 2.13229C67.1047 2.04127 67.3017 1.99636 67.5 2.00023H68.0003L78 10.8616L87.9998 2.00023H88.5C88.926 2.00023 89.301 2.1964 89.5703 2.53006C89.8395 2.85456 90 3.31288 90 3.83354Z" fill="white"/>
<path d="M118.75 2H102.25C101.008 2 100 3.0558 100 4.35714V21.6429C100 22.9442 101.008 24 102.25 24H118.75C119.992 24 121 22.9442 121 21.6429V4.35714C121 3.0558 119.992 2 118.75 2ZM116.458 9.79821C116.467 9.93571 116.467 10.0781 116.467 10.2156C116.467 14.4732 113.373 19.379 107.72 19.379C105.977 19.379 104.359 18.8487 103 17.9353C103.248 17.9647 103.488 17.9746 103.741 17.9746C105.18 17.9746 106.502 17.4638 107.556 16.5996C106.206 16.5701 105.072 15.642 104.683 14.3652C105.156 14.4388 105.583 14.4388 106.07 14.3063C104.664 14.0067 103.609 12.7103 103.609 11.1437V11.1045C104.017 11.3451 104.495 11.4924 104.997 11.5121C104.575 11.2182 104.23 10.8196 103.991 10.3517C103.752 9.88388 103.627 9.36136 103.628 8.8308C103.628 8.2317 103.778 7.6817 104.045 7.20536C105.559 9.15982 107.833 10.4366 110.383 10.5741C109.947 8.38884 111.508 6.61607 113.383 6.61607C114.269 6.61607 115.066 7.00402 115.628 7.63259C116.322 7.49509 116.987 7.225 117.578 6.8567C117.348 7.60312 116.866 8.2317 116.228 8.62946C116.847 8.56071 117.447 8.37902 118 8.12857C117.583 8.77188 117.058 9.34152 116.458 9.79821Z" fill="white"/>
<path d="M153 13.0276C153 6.94035 148.072 2 142 2C135.928 2 131 6.94035 131 13.0276C131 18.3649 134.784 22.809 139.8 23.8346V16.3358H137.6V13.0276H139.8V10.2707C139.8 8.14236 141.527 6.41103 143.65 6.41103H146.4V9.7193H144.2C143.595 9.7193 143.1 10.2155 143.1 10.8221V13.0276H146.4V16.3358H143.1V24C148.655 23.4486 153 18.7509 153 13.0276Z" fill="white"/>
<path d="M16.3803 2H9.6307C3.4663 2 2 3.4663 2 9.6197V16.3693C2 22.5326 3.4553 24 9.6197 24H16.3693C22.5326 24 24 22.5447 24 16.3803V9.6307C24 3.4663 22.5447 2 16.3803 2ZM19.7606 17.697H18.1557C17.5485 17.697 17.3659 17.2053 16.2769 16.1163C15.3265 15.2 14.925 15.0856 14.6841 15.0856C14.3519 15.0856 14.2606 15.1769 14.2606 15.6356V17.0788C14.2606 17.4693 14.1341 17.6981 13.1144 17.6981C12.1248 17.6316 11.1651 17.3309 10.3145 16.8209C9.4638 16.3108 8.74649 15.606 8.2216 14.7644C6.97549 13.2134 6.10844 11.393 5.6894 9.4481C5.6894 9.2072 5.7807 8.9894 6.2394 8.9894H7.8432C8.2557 8.9894 8.4042 9.1731 8.5659 9.5966C9.3447 11.889 10.6735 13.8822 11.2125 13.8822C11.4193 13.8822 11.5095 13.7909 11.5095 13.275V10.9144C11.4413 9.8375 10.8693 9.7462 10.8693 9.3568C10.8766 9.25409 10.9237 9.15829 11.0005 9.0897C11.0773 9.02111 11.1778 8.98513 11.2807 8.9894H13.8019C14.1462 8.9894 14.2606 9.161 14.2606 9.5735V12.7591C14.2606 13.1034 14.4091 13.2178 14.5125 13.2178C14.7193 13.2178 14.8788 13.1034 15.2572 12.725C16.0699 11.7338 16.734 10.6296 17.2284 9.447C17.2789 9.30495 17.3746 9.18333 17.5007 9.10071C17.6268 9.01809 17.7765 8.979 17.9269 8.9894H19.5318C20.0125 8.9894 20.1148 9.2303 20.0125 9.5735C19.4289 10.8808 18.7069 12.1217 17.8587 13.275C17.686 13.539 17.6167 13.6765 17.8587 13.9856C18.0182 14.2265 18.5803 14.6962 18.9587 15.1428C19.5086 15.6913 19.9652 16.3259 20.3106 17.0216C20.4481 17.4682 20.2182 17.697 19.7606 17.697Z" fill="white"/>
</svg>
