<svg width="28" height="28" viewBox="0 0 28 28" fill="none" xmlns="http://www.w3.org/2000/svg">
<g id="Vector" filter="url(#filter0_d_1_67)">
<path d="M12 15L7 10L8.41 8.58L12 12.17L19.59 4.58L21 6M14 0C12.6868 0 11.3864 0.258658 10.1732 0.761205C8.95991 1.26375 7.85752 2.00035 6.92893 2.92893C5.05357 4.8043 4 7.34784 4 10C4 12.6522 5.05357 15.1957 6.92893 17.0711C7.85752 17.9997 8.95991 18.7362 10.1732 19.2388C11.3864 19.7413 12.6868 20 14 20C16.6522 20 19.1957 18.9464 21.0711 17.0711C22.9464 15.1957 24 12.6522 24 10C24 8.68678 23.7413 7.38642 23.2388 6.17317C22.7362 4.95991 21.9997 3.85752 21.0711 2.92893C20.1425 2.00035 19.0401 1.26375 17.8268 0.761205C16.6136 0.258658 15.3132 0 14 0Z" fill="#BE0202"/>
</g>
<defs>
<filter id="filter0_d_1_67" x="0" y="0" width="28" height="28" filterUnits="userSpaceOnUse" color-interpolation-filters="sRGB">
<feFlood flood-opacity="0" result="BackgroundImageFix"/>
<feColorMatrix in="SourceAlpha" type="matrix" values="0 0 0 0 0 0 0 0 0 0 0 0 0 0 0 0 0 0 127 0" result="hardAlpha"/>
<feOffset dy="4"/>
<feGaussianBlur stdDeviation="2"/>
<feComposite in2="hardAlpha" operator="out"/>
<feColorMatrix type="matrix" values="0 0 0 0 0 0 0 0 0 0 0 0 0 0 0 0 0 0 0.1 0"/>
<feBlend mode="normal" in2="BackgroundImageFix" result="effect1_dropShadow_1_67"/>
<feBlend mode="normal" in="SourceGraphic" in2="effect1_dropShadow_1_67" result="shape"/>
</filter>
</defs>
</svg>
